<svg xmlns="http://www.w3.org/2000/svg" viewBox="0 0 202.4 36.9"><linearGradient id="A" gradientUnits="userSpaceOnUse" x1="19.398" y1="0" x2="19.398" y2="36.9"><stop offset="0" stop-color="#fe0071"/><stop offset="1" stop-color="#ff052a"/></linearGradient><path d="M28.6 36.9h0-16c-1.6 0-3.1-.9-3.9-2.3L.6 20.7c-.8-1.4-.8-3.1 0-4.4L8.7 2.2C9.5.8 10.9 0 12.5 0h16.1c1.6 0 3.2.9 4 2.3l5.8 10.1c.1.1.1.3 0 .4 0 .1-.1.2-.2.3l-2 1.1c-2.1 1.2-4.8.5-6-1.6L27 7.1h-6.4v22.7H27l3.3-5.7-5.5-3.2c-1.1-.6-1.8-1.8-1.8-3.1v-5.4c0-.2.1-.3.2-.4a.45.45 0 0 1 .5 0L37 19.6c.9.5 1.5 1.3 1.7 2.2s.1 1.9-.4 2.8l-5.8 10c-.7 1.4-2.2 2.3-3.9 2.3zm-16-1h16c1.3 0 2.5-.7 3.2-1.8l5.8-10c.4-.6.5-1.3.3-2s-.6-1.3-1.2-1.6L34 19l-9.8-5.7v4.5c0 .9.5 1.8 1.3 2.3l5.9 3.4c.2.1.3.4.2.7l-3.7 6.4c-.1.2-.3.2-.4.2H20a.47.47 0 0 1-.5-.5V6.6a.47.47 0 0 1 .5-.5h7.5c.2 0 .3.1.4.2l3.3 5.7c.9 1.6 3 2.2 4.7 1.3l1.6-.9-5.6-9.6c-.8-1.1-2-1.8-3.3-1.8h0-16.1c-1.2 0-2.3.6-2.9 1.7L1.5 16.8c-.6 1.1-.6 2.4 0 3.4l8.1 13.9c.6 1.1 1.7 1.8 3 1.8h0zm1.1-5.1c-.2 0-.3-.1-.4-.2L6.4 18.8c-.1-.2-.1-.4 0-.6l6.9-11.8c.1-.2.3-.3.6-.2.2.1.4.3.4.5v23.7c0 .2-.2.4-.4.5-.1-.1-.2-.1-.2-.1zM7.4 18.4l5.8 10V8.5l-5.8 9.9z" fill="url(#A)"/><path d="M73.4 12.4v-1.6H78v15.1c0 2.5-.8 4.4-2.4 5.7s-3.6 1.9-5.9 1.9c-3.6 0-6.1-1.3-7.5-3.8l4.1-2.4c.7 1.3 2 2 3.6 2 1.1 0 2-.3 2.7-.9.6-.6.9-1.4.9-2.5v-1.5c-1.1 1.4-2.7 2.1-4.6 2.1-2.2 0-4.1-.8-5.6-2.4s-2.2-3.5-2.2-5.7.7-4.1 2.2-5.7 3.3-2.4 5.6-2.4c1.9 0 3.4.7 4.5 2.1zM66.8 21c.7.7 1.7 1 2.8 1s2-.3 2.8-1c.7-.7 1.1-1.5 1.1-2.7a3.69 3.69 0 0 0-1.1-2.7c-.7-.7-1.7-1-2.8-1s-2 .3-2.8 1c-.7.7-1.1 1.5-1.1 2.7s.4 2.1 1.1 2.7zm19.5-10.3v2.8c.3-1 .9-1.8 1.8-2.3.9-.6 1.9-.8 3-.8v5.4c-1.2-.2-2.3 0-3.3.6s-1.5 1.6-1.5 3v7.2h-4.8V10.7h4.8zm18.1 1.5v-1.5h4.8v15.9h-4.8v-1.5c-1.1 1.3-2.7 1.9-4.7 1.9-2.1 0-3.9-.8-5.4-2.4s-2.2-3.6-2.2-6 .7-4.3 2.2-5.9 3.3-2.4 5.4-2.4c2 0 3.6.6 4.7 1.9zm-7.6 6.5c0 1.2.3 2.1 1 2.8s1.6 1 2.7 1 2-.3 2.7-1 1-1.6 1-2.8-.3-2.1-1-2.8-1.6-1-2.7-1-2 .3-2.7 1c-.6.7-1 1.6-1 2.8zm25.4-8.4c2.1 0 3.9.8 5.4 2.4s2.2 3.6 2.2 5.9c0 2.4-.7 4.4-2.2 6s-3.3 2.4-5.4 2.4-3.6-.6-4.7-1.9V33h-4.8V10.7h4.8v1.5c1-1.3 2.6-1.9 4.7-1.9zm-3.7 11.2c.7.7 1.6 1 2.7 1s2-.3 2.7-1 1.1-1.6 1.1-2.8-.4-2.1-1.1-2.8-1.6-1-2.7-1-2 .3-2.7 1-1 1.6-1 2.8c-.1 1.2.3 2.1 1 2.8zm23.3-11.2c1.7 0 3.1.6 4.2 1.7 1.1 1.2 1.7 2.8 1.7 4.8v9.8H143v-9.1c0-.9-.3-1.6-.8-2.1s-1.2-.8-2-.8c-.9 0-1.7.3-2.2.8-.5.6-.8 1.4-.8 2.4v8.7h-4.8V4.4h4.8v7.9c1-1.4 2.5-2 4.6-2zm14 16.3H151V3.4h4.8v23.2zm8.3 0h-4.8V10.7h4.8v15.9zm12.8-16.3c1.7 0 3.1.6 4.2 1.7 1.1 1.2 1.7 2.8 1.7 4.8v9.8H178v-9.1c0-.9-.3-1.6-.8-2.1s-1.2-.8-2-.8c-.9 0-1.7.3-2.2.8-.5.6-.8 1.4-.8 2.4v8.7h-4.8V10.7h4.8v1.5c1.1-1.3 2.6-1.9 4.7-1.9zm20.7 1.9v-1.5h4.8V33h-4.8v-7.9c-1.1 1.3-2.7 1.9-4.7 1.9-2.1 0-3.9-.8-5.4-2.4s-2.2-3.6-2.2-6 .7-4.3 2.2-5.9 3.3-2.4 5.4-2.4 3.6.6 4.7 1.9zm-7.5 6.5c0 1.2.3 2.1 1 2.8s1.6 1 2.7 1 2-.3 2.7-1 1-1.6 1-2.8-.3-2.1-1-2.8-1.6-1-2.7-1-2 .3-2.7 1-1 1.6-1 2.8z" fill="#ece7fd"/><linearGradient id="B" gradientUnits="userSpaceOnUse" x1="161.708" y1="3.524" x2="161.708" y2="7.732"><stop offset="0" stop-color="#fe0071"/><stop offset="1" stop-color="#ff052a"/></linearGradient><path d="M163 4.2v-.6h.9v4h-.9v-.5c-.3.5-.8.7-1.4.7-.5 0-1-.2-1.4-.6s-.6-.9-.6-1.5.2-1.1.6-1.5.9-.6 1.4-.6c.6-.1 1 .1 1.4.6zm-2.2 2.3c.2.2.5.4.9.4s.7-.1.9-.4c.2-.2.4-.6.4-.9s-.1-.7-.4-.9c-.2-.2-.5-.4-.9-.4s-.7.1-.9.4c-.2.2-.4.5-.4.9s.2.7.4.9z" fill="url(#B)"/><linearGradient id="C" gradientUnits="userSpaceOnUse" x1="167.864" y1="3.524" x2="167.864" y2="7.628"><stop offset="0" stop-color="#fe0071"/><stop offset="1" stop-color="#ff052a"/></linearGradient><path d="M168.1 3.5c.5 0 .8.1 1.1.4s.4.7.4 1.2v2.5h-.9V5.3c0-.3-.1-.5-.2-.7-.2-.2-.4-.2-.7-.2s-.6.1-.7.3c-.2.2-.3.5-.3.9v2.1h-.8v-4h.9v.5c.3-.5.7-.7 1.2-.7z" fill="url(#C)"/><linearGradient id="D" gradientUnits="userSpaceOnUse" x1="173.716" y1="3.524" x2="173.716" y2="7.732"><stop offset="0" stop-color="#fe0071"/><stop offset="1" stop-color="#ff052a"/></linearGradient><path d="M175 4.2v-.6h.9v4h-.9v-.5c-.3.5-.8.7-1.4.7-.5 0-1-.2-1.4-.6s-.6-.9-.6-1.5.2-1.1.6-1.5.9-.6 1.4-.6c.6-.1 1.1.1 1.4.6zm-2.2 2.3c.2.2.5.4.9.4s.7-.1.9-.4c.2-.2.4-.6.4-.9s-.1-.7-.4-.9c-.2-.2-.5-.4-.9-.4s-.7.1-.9.4c-.2.2-.4.5-.4.9.1.4.2.7.4.9z" fill="url(#D)"/><linearGradient id="E" gradientUnits="userSpaceOnUse" x1="178.484" y1="1.789" x2="178.484" y2="7.628"><stop offset="0" stop-color="#fe0071"/><stop offset="1" stop-color="#ff052a"/></linearGradient><path d="M178.9 7.6h-.9V1.8h.9v5.8z" fill="url(#E)"/><linearGradient id="F" gradientUnits="userSpaceOnUse" x1="181.547" y1="1.924" x2="181.547" y2="7.628"><stop offset="0" stop-color="#fe0071"/><stop offset="1" stop-color="#ff052a"/></linearGradient><path d="M181.9 2.9c-.1.1-.2.1-.4.1a.76.76 0 0 1-.4-.2c-.1 0-.1-.2-.1-.3a.76.76 0 0 1 .2-.4c.1-.1.2-.2.4-.2s.3.1.4.2.2.2.2.4-.2.3-.3.4zm.1 4.7h-.9v-4h.9v4z" fill="url(#F)"/><linearGradient id="G" gradientUnits="userSpaceOnUse" x1="185.116" y1="2.508" x2="185.116" y2="7.663"><stop offset="0" stop-color="#fe0071"/><stop offset="1" stop-color="#ff052a"/></linearGradient><path d="M186.4 3.6v.8h-1v1.9c0 .2 0 .3.1.4s.2.1.3.1h.5v.8c-.7.1-1.1 0-1.4-.2s-.4-.6-.4-1.1V4.5h-.7v-.9h.7v-.8l.9-.3v1.1h1z" fill="url(#G)"/><linearGradient id="H" gradientUnits="userSpaceOnUse" x1="190.052" y1="3.628" x2="190.052" y2="9.232"><stop offset="0" stop-color="#fe0071"/><stop offset="1" stop-color="#ff052a"/></linearGradient><path d="M190.1 6.5l1-2.9h.9l-1.5 4.1c-.4 1-1 1.5-2 1.5v-.8c.3 0 .5 0 .6-.2.2-.1.3-.3.4-.6v-.1L188 3.6h.9l1.2 2.9z" fill="url(#H)"/><linearGradient id="I" gradientUnits="userSpaceOnUse" x1="195.407" y1="3.524" x2="195.407" y2="7.732"><stop offset="0" stop-color="#fe0071"/><stop offset="1" stop-color="#ff052a"/></linearGradient><path d="M195.6 7.7c-.6 0-1.1-.2-1.5-.6s-.6-.9-.6-1.5.2-1.1.6-1.5.9-.6 1.5-.6c.4 0 .7.1 1.1.3.3.2.6.4.7.8l-.8.4c-.1-.2-.2-.3-.4-.5-.2-.1-.4-.2-.6-.2-.4 0-.6.1-.9.4-.2.2-.4.5-.4.9s.1.7.4.9c.2.2.5.4.9.4.2 0 .4-.1.6-.2s.3-.3.4-.5l.7.4c-.2.3-.4.6-.7.8a1.93 1.93 0 0 1-1 .3z" fill="url(#I)"/><linearGradient id="J" gradientUnits="userSpaceOnUse" x1="200.495" y1="3.524" x2="200.495" y2="7.732"><stop offset="0" stop-color="#fe0071"/><stop offset="1" stop-color="#ff052a"/></linearGradient><path d="M199.9 4.7c0 .1.1.2.2.3s.3.2.6.2c.2 0 .3.1.5.1a.76.76 0 0 1 .4.2c.1.1.3.2.4.4a.9.9 0 0 1 .1.5c0 .4-.1.7-.4.9s-.7.3-1.1.3-.7-.1-1-.2c-.3-.2-.5-.4-.6-.7l.7-.4c.1.4.4.6.9.6s.7-.1.7-.4c0-.2-.3-.4-.8-.5-.2 0-.4-.1-.5-.1a.76.76 0 0 1-.4-.2c-.1-.1-.3-.2-.4-.4-.1-.1-.1-.3-.1-.5 0-.4.1-.7.4-.9a1.69 1.69 0 0 1 1-.3c.3 0 .6.1.9.2s.5.4.6.6l-.7.4c-.1-.3-.4-.5-.8-.5-.2 0-.3 0-.4.1s-.2.2-.2.3z" fill="url(#J)"/><defs /></svg>