<svg xmlns="http://www.w3.org/2000/svg" viewBox="0 0 5.42 4.73"><defs><style>.cls-1{fill:#8247e5;}</style></defs><g id="Layer_2" data-name="Layer 2"><g id="Layer_1-2" data-name="Layer 1"><path class="cls-1" d="M4.09,1.45a.34.34,0,0,0-.34,0L3,1.9l-.53.31-.78.46a.34.34,0,0,1-.34,0L.7,2.3A.33.33,0,0,1,.53,2V1.3A.32.32,0,0,1,.7,1L1.31.66a.34.34,0,0,1,.34,0L2.26,1a.34.34,0,0,1,.17.29v.46L3,1.46V1A.3.3,0,0,0,2.79.71L1.66,0a.4.4,0,0,0-.34,0L.17.7A.32.32,0,0,0,0,1V2.32a.32.32,0,0,0,.17.29l1.15.66a.34.34,0,0,0,.34,0l.78-.45L3,2.51l.78-.45a.34.34,0,0,1,.34,0l.61.35a.34.34,0,0,1,.17.29v.71a.32.32,0,0,1-.17.29l-.61.37a.34.34,0,0,1-.34,0l-.61-.35A.36.36,0,0,1,3,3.43V3l-.53.3v.47A.34.34,0,0,0,2.61,4l1.15.66a.4.4,0,0,0,.34,0L5.25,4a.34.34,0,0,0,.17-.29V2.41a.32.32,0,0,0-.17-.29Z"/></g></g></svg>